# xmcd
#
# Track frame offsets:
#	150
#	18490
#	39731
#	60034
#	78429
#	94175
#	112241
#	136305
#	152974
#	171935
#	188753
#
# Disc length: 2742 seconds
# Revision: 1
# Processed by: cddbd v1.5.2PL0 Copyright (c) Steve Scherf et al.
# Submitted via: dBpowerAMP V12.0
#
DISCID=8d0ab40b
DTITLE=Jonathan Edwards - Tomorrow's Child
DYEAR=2015
DGENRE=Country
TTITLE0=Down In The Woods
TTITLE1=Tomorrow's Child
TTITLE2=Sandy Girl
TTITLE3=Mole in the Ground
TTITLE4=Girl From The Canyon
TTITLE5=This Old Guitar
TTITLE6=Mamaw
TTITLE7=Hard Times
TTITLE8=Gracie
TTITLE9=Ain't Got Time
TTITLE10=Jonny's Come Home
EXTD=
EXTT0=
EXTT1=
EXTT2=
EXTT3=
EXTT4=
EXTT5=
EXTT6=
EXTT7=
EXTT8=
EXTT9=
EXTT10=
PLAYORDER=
